<?xml version="1.0" encoding="utf-8"?>
<!-- Generator: Adobe Illustrator 21.1.0, SVG Export Plug-In . SVG Version: 6.00 Build 0)  -->
<svg version="1.1" id="Layer_1" xmlns="http://www.w3.org/2000/svg" xmlns:xlink="http://www.w3.org/1999/xlink" x="0px" y="0px"
	 viewBox="0 0 12.1 12.9" style="enable-background:new 0 0 12.1 12.9;" xml:space="preserve">
<title>next-icon</title>
<desc>Created with Sketch.</desc>
<g id="Page-1">
	<g id="_x30_4.2-Favorites" transform="translate(-754.000000, -982.000000)">
		<g id="Group-10" transform="translate(576.000000, 970.000000)">
			<g id="Group-18">
				<path id="next-icon" d="M187.3,19.3C187.2,19.3,187.2,19.3,187.3,19.3L187.3,19.3l-7.4,4.6c-0.2,0.1-0.4,0.2-0.6,0.2
					c-0.7,0-1.2-0.5-1.2-1.2l0,0v-9c0-0.2,0.1-0.4,0.2-0.6c0.3-0.6,1.1-0.7,1.6-0.4l0,0l7.4,4.5c0,0,0.1,0,0.1,0.1v-4.6
					c0-0.4,0.4-0.8,0.8-0.8l0,0h1.3l0,0c0.4,0,0.8,0.4,0.8,0.8l0,0v11.3c0,0.4-0.4,0.8-0.8,0.8l0,0h-1.3c-0.4,0-0.8-0.4-0.8-0.8
					v-4.9H187.3z"/>
			</g>
		</g>
	</g>
</g>
</svg>
