<?xml version="1.0" encoding="utf-8"?>
<!-- Generator: Adobe Illustrator 21.1.0, SVG Export Plug-In . SVG Version: 6.00 Build 0)  -->
<svg version="1.1" id="Layer_1" xmlns="http://www.w3.org/2000/svg" xmlns:xlink="http://www.w3.org/1999/xlink" x="0px" y="0px"
	 viewBox="0 0 147 128.3" style="enable-background:new 0 0 147 128.3;" xml:space="preserve">
<title>nowplaying-empty</title>
<desc>Created with Sketch.</desc>
<g id="Page-1">
	<g id="_x30_2.1-Now-Playing---Empty" transform="translate(-743.000000, -269.000000)">
		<g id="nowplaying-empty" transform="translate(743.000000, 269.000000)">
			<path id="Fill-1" d="M41.1,99l-4.3-2.8V68.7l4.3-2.8l30.6,13.7v5.6L41.1,99z M42.9,73.4v18l20.1-9L42.9,73.4z"/>
			<path id="Fill-2" d="M98,128.3H12.3C5.5,128.3,0,122.8,0,116V48.9c0-6.7,5.5-12.2,12.3-12.2H98c6.8,0,12.3,5.5,12.3,12.2V116
				C110.2,122.8,104.7,128.3,98,128.3z M12.3,42.8c-3.4,0-6.1,2.7-6.1,6.1V116c0,3.4,2.8,6.1,6.1,6.1H98c3.4,0,6.1-2.7,6.1-6.1V48.9
				c0-3.4-2.8-6.1-6.1-6.1C98,42.8,12.3,42.8,12.3,42.8z"/>
			<path id="Fill-3" d="M128.6,109.9h-6.1V30.6c0-3.4-2.8-6.1-6.1-6.1h-98v-6.1h98c6.8,0,12.3,5.5,12.3,12.2v79.3H128.6z"/>
			<path id="Fill-4" d="M147,91.6h-6.1V12.2c0-3.4-2.8-6.1-6.1-6.1h-98V0h98c6.8,0,12.3,5.5,12.3,12.2v79.4H147z"/>
		</g>
	</g>
</g>
</svg>
