<?xml version="1.0" encoding="utf-8"?>
<!-- Generator: Adobe Illustrator 21.1.0, SVG Export Plug-In . SVG Version: 6.00 Build 0)  -->
<svg version="1.1" id="Layer_1" xmlns="http://www.w3.org/2000/svg" xmlns:xlink="http://www.w3.org/1999/xlink" x="0px" y="0px"
	 viewBox="0 0 39.4 39.5" style="enable-background:new 0 0 39.4 39.5;" xml:space="preserve">
<title>pause-icon</title>
<desc>Created with Sketch.</desc>
<g id="Page-1">
	
		<g id="_x30_1.2-Heavy-Rotation---Logged-in---Song-playing---with-similar-results" transform="translate(-682.000000, -969.000000)">
		<g id="Group-18" transform="translate(576.000000, 970.000000)">
			<g id="pause-icon" transform="translate(106.000000, 0.000000)">
				<path d="M19.7,38.5C8.8,38.5,0,29.7,0,18.8S8.8-1,19.7-1s19.7,8.9,19.7,19.8S30.6,38.5,19.7,38.5z M19.7,0C9.4,0,1,8.4,1,18.8
					s8.4,18.8,18.7,18.8s18.7-8.4,18.7-18.8S30,0,19.7,0z"/>
				<path id="Rectangle" d="M14.1,9.3h0.5c1.1,0,2,0.9,2,2v14.3c0,1.1-0.9,2-2,2h-0.5c-1.1,0-2-0.9-2-2V11.2
					C12.1,10.2,13,9.3,14.1,9.3z"/>
				<path id="Rectangle_1_" d="M24.1,9.3h0.5c1.1,0,2,0.9,2,2v14.3c0,1.1-0.9,2-2,2h-0.5c-1.1,0-2-0.9-2-2V11.2
					C22.1,10.2,23,9.3,24.1,9.3z"/>
			</g>
		</g>
	</g>
</g>
</svg>
