<?xml version="1.0" encoding="utf-8"?>
<!-- Generator: Adobe Illustrator 21.1.0, SVG Export Plug-In . SVG Version: 6.00 Build 0)  -->
<svg version="1.1" id="Layer_1" xmlns="http://www.w3.org/2000/svg" xmlns:xlink="http://www.w3.org/1999/xlink" x="0px" y="0px"
	 viewBox="0 0 12.1 12.9" style="enable-background:new 0 0 12.1 12.9;" xml:space="preserve">
<title>prev-icon</title>
<desc>Created with Sketch.</desc>
<g id="Page-1">
	<g id="_x30_4.2-Favorites" transform="translate(-636.000000, -982.000000)">
		<g id="Group-10" transform="translate(576.000000, 970.000000)">
			<g id="Group-18">
				<path id="prev-icon" d="M62.9,19.3C62.9,19.3,63,19.3,62.9,19.3L62.9,19.3l7.4,4.6C70.5,24,70.7,24,71,24c0.7,0,1.2-0.5,1.2-1.2
					v-9l0,0c0-0.2-0.1-0.4-0.2-0.6c-0.3-0.6-1.1-0.7-1.6-0.4l0,0L63,17.3c0,0-0.1,0-0.1,0.1v-4.6c0-0.4-0.4-0.8-0.8-0.8l0,0h-1.3
					l0,0c-0.4,0-0.8,0.4-0.8,0.8l0,0v11.3c0,0.4,0.4,0.8,0.8,0.8h1.3c0.4,0,0.8-0.4,0.8-0.8l0,0V19.3z"/>
			</g>
		</g>
	</g>
</g>
</svg>
