<?xml version="1.0" encoding="utf-8"?>
<!-- Generator: Adobe Illustrator 21.1.0, SVG Export Plug-In . SVG Version: 6.00 Build 0)  -->
<svg version="1.1" id="Layer_1" xmlns="http://www.w3.org/2000/svg" xmlns:xlink="http://www.w3.org/1999/xlink" x="0px" y="0px"
	 viewBox="0 0 16 12.7" style="enable-background:new 0 0 16 12.7;" xml:space="preserve">
<title>repeat-icon</title>
<desc>Created with Sketch.</desc>
<g id="Page-1">
	<g id="_x30_4.2-Favorites" transform="translate(-810.000000, -982.000000)">
		<g id="Group-10" transform="translate(576.000000, 970.000000)">
			<g id="Group-18">
				<g id="repeat-icon" transform="translate(234.000000, 12.000000)">
					<path id="Combined-Shape" d="M5.2,10.4h4.6h0.4c0.4,0,0.7,0,1.1,0c1.1-0.1,2.1-0.6,2.9-1.4c0.8-0.8,1.1-2,0.9-3.2
						c-0.1-0.8-0.5-1.6-1-2.2c-0.2-0.3,0.4-0.7,0.5-0.6c0.6,0.7,1,1.7,1.2,2.6c0.3,1.5-0.1,2.9-1.1,3.9c-0.9,1-2.2,1.6-3.4,1.7
						c-0.4,0-0.8,0-1.2,0h-5v1.5L2,10.9L5.2,9V10.4z"/>
					<path id="Combined-Shape_1_" d="M10.8,2.3H6.2H5.8c-0.4,0-0.7,0-1.1,0C3.6,2.4,2.5,2.9,1.8,3.7C0.9,4.6,0.6,5.7,0.9,7
						c0.1,0.8,0.5,1.6,1,2.2C2,9.4,1.4,9.8,1.3,9.7C0.7,8.9,0.2,8,0.1,7.1c-0.3-1.5,0.1-2.9,1.1-3.9c0.9-1,2.2-1.6,3.4-1.7
						c0.4,0,0.8,0,1.2,0h5V0l3.1,1.8l-3.1,1.8C10.8,3.6,10.8,2.3,10.8,2.3z"/>
				</g>
			</g>
		</g>
	</g>
</g>
</svg>
