<?xml version="1.0" encoding="utf-8"?>
<!-- Generator: Adobe Illustrator 21.1.0, SVG Export Plug-In . SVG Version: 6.00 Build 0)  -->
<svg version="1.1" id="Layer_1" xmlns="http://www.w3.org/2000/svg" xmlns:xlink="http://www.w3.org/1999/xlink" x="0px" y="0px"
	 viewBox="0 0 16 16" style="enable-background:new 0 0 16 16;" xml:space="preserve">
<title>Page 1</title>
<desc>Created with Sketch.</desc>
<g id="Page-1_1_">
	
		<g id="_x30_1.2-Heavy-Rotation---Logged-in---Song-playing---with-similar-results" transform="translate(-242.000000, -32.000000)">
		<g id="Group-12" transform="translate(223.000000, 20.000000)">
			<path id="Page-1" d="M35,27l-4.1-4.1c2.1-2.6,2-6.5-0.5-8.9c-1.3-1.3-3-2-4.7-2c-1.8,0-3.5,0.7-4.7,2c-1.3,1.3-2,3-2,4.7
				c0,1.8,0.7,3.5,2,4.7c1.3,1.3,3,2,4.7,2c1.5,0,3-0.5,4.2-1.5L34,28L35,27z M25.7,24c-1.4,0-2.7-0.5-3.7-1.5c-1-1-1.5-2.3-1.5-3.7
				c0-1.4,0.5-2.7,1.5-3.7c1-1,2.3-1.5,3.7-1.5c1.4,0,2.7,0.5,3.7,1.5c2,2,2,5.4,0,7.4C28.4,23.4,27.1,24,25.7,24z"/>
		</g>
	</g>
</g>
</svg>
