<?xml version="1.0" encoding="utf-8"?>
<!-- Generator: Adobe Illustrator 21.1.0, SVG Export Plug-In . SVG Version: 6.00 Build 0)  -->
<svg version="1.1" id="Layer_1" xmlns="http://www.w3.org/2000/svg" xmlns:xlink="http://www.w3.org/1999/xlink" x="0px" y="0px"
	 viewBox="0 0 15 12" style="enable-background:new 0 0 15 12;" xml:space="preserve">
<title>shuffle-icon</title>
<desc>Created with Sketch.</desc>
<g id="Page-1">
	<g id="_x30_4.2-Favorites" transform="translate(-575.000000, -982.000000)">
		<g id="Group-10" transform="translate(576.000000, 970.000000)">
			<g id="Group-18">
				<path id="shuffle-icon" d="M11.35,19.583L14,21.8L11.35,24v-2.05c-0.067,0-0.167,0.017-0.267,0.017
					c-0.933,0-3.1-0.333-4.933-3.033C6.1,18.85,6.117,18.75,6.2,18.7c0.083-0.05,0.183-0.033,0.233,0.05
					c1.967,2.883,4.317,2.917,4.933,2.867v-2.033H11.35z M11.35,14.167v2.25L14,14.2L11.35,12v1.833
					c-0.8-0.05-3.767,0.083-5.883,4.167c-1.967,3.783-6.25,3.617-6.283,3.617c-0.1,0-0.167,0.067-0.183,0.167
					c0,0.1,0.067,0.167,0.167,0.183h0.117c0.717,0,4.617-0.167,6.483-3.8C7.817,14.183,10.667,14.133,11.35,14.167z M-0.817,14.167
					c0.033,0,3.75-0.15,5.833,2.867C5.05,17.083,5.1,17.1,5.15,17.1c0.033,0,0.067-0.017,0.1-0.033c0.083-0.05,0.1-0.15,0.05-0.233
					c-2.2-3.167-6.1-3-6.133-3c-0.1,0-0.167,0.083-0.167,0.183C-1,14.1-0.917,14.167-0.817,14.167z"/>
			</g>
		</g>
	</g>
</g>
</svg>
