<?xml version="1.0" encoding="utf-8"?>
<!-- Generator: Adobe Illustrator 21.1.0, SVG Export Plug-In . SVG Version: 6.00 Build 0)  -->
<svg version="1.1" id="Layer_1" xmlns="http://www.w3.org/2000/svg" xmlns:xlink="http://www.w3.org/1999/xlink" x="0px" y="0px"
	 viewBox="0 0 15.9 15.9" style="enable-background:new 0 0 15.9 15.9;" xml:space="preserve">
<title>enlarge-video-icon</title>
<desc>Created with Sketch.</desc>
<g id="Page-1">
	
		<g id="_x30_1.2-Heavy-Rotation---Logged-in---Song-playing---with-similar-results" transform="translate(-170.000000, -909.000000)">
		<g id="Group-16" transform="translate(170.000000, 909.000000)">
			<g id="enlarge-video-icon">
				<path id="Fill-1" d="M15.1,0h-4.4c-0.2,0-0.3,0.1-0.3,0.3v1c0,0.2,0.1,0.3,0.3,0.3h2.5L7.6,7.2c-0.1,0.1-0.1,0.3,0,0.5l0.7,0.7
					c0.1,0.1,0.3,0.1,0.5,0l5.6-5.6v2.5c0,0.2,0.1,0.3,0.3,0.3h1c0.2,0,0.3-0.1,0.3-0.3V0.8C15.9,0.4,15.5,0,15.1,0z"/>
				<path id="Fill-2" d="M13.2,8.7h-1c-0.2,0-0.3,0.1-0.3,0.3v5.2H1.6V4h5.2C7,4,7.1,3.8,7.1,3.7v-1c0-0.2-0.1-0.3-0.3-0.3h-6
					C0.4,2.4,0,2.7,0,3.2v11.9c0,0.4,0.4,0.8,0.8,0.8h11.9c0.4,0,0.8-0.4,0.8-0.8V9C13.5,8.9,13.4,8.7,13.2,8.7z"/>
			</g>
		</g>
	</g>
</g>
</svg>
