<?xml version="1.0" encoding="utf-8"?>
<!-- Generator: Adobe Illustrator 21.1.0, SVG Export Plug-In . SVG Version: 6.00 Build 0)  -->
<svg version="1.1" id="Layer_1" xmlns="http://www.w3.org/2000/svg" xmlns:xlink="http://www.w3.org/1999/xlink" x="0px" y="0px"
	 viewBox="0 0 23.608 16.469" style="enable-background:new 0 0 23.608 16.469;" xml:space="preserve">
<title>enter-icon</title>
<desc>Created with Sketch.</desc>
<g id="Page-1">
	
		<g id="_x30_1.2-Heavy-Rotation---Logged-in---Song-playing---with-similar-results" transform="translate(-1061.000000, -30.000000)">
		<g id="Group-12" transform="translate(223.000000, 20.000000)">
			<g id="enter-icon" transform="translate(838.000000, 10.000000)">
				<path id="Fill-1" d="M22.01,16.469H1.598C0.717,16.469,0,15.767,0,14.904V7.851c0-0.863,0.717-1.565,1.598-1.565h8.974V1.4
					c0-0.771,0.64-1.4,1.429-1.4h10.177c0.787,0,1.429,0.628,1.429,1.4v13.502C23.608,15.765,22.891,16.469,22.01,16.469z
					 M1.598,7.008c-0.474,0-0.861,0.379-0.861,0.843v7.051c0,0.465,0.387,0.843,0.861,0.843H22.01c0.474,0,0.861-0.379,0.861-0.843
					V1.4c0-0.373-0.31-0.677-0.691-0.677H12.001c-0.381,0-0.691,0.304-0.691,0.677v5.608H1.598z"/>
				<path id="Fill-2" d="M16.742,6.083c-0.34,0-0.614,0.27-0.614,0.602v3.601c0,0.332-0.275,0.602-0.614,0.602h-4.933V9.282
					l-4.33,2.208l4.33,2.208v-1.606h4.933c1.017,0,1.845-0.811,1.845-1.807v-3.6C17.358,6.353,17.083,6.083,16.742,6.083z"/>
			</g>
		</g>
	</g>
</g>
</svg>
