<?xml version="1.0" encoding="utf-8"?>
<!-- Generator: Adobe Illustrator 21.1.0, SVG Export Plug-In . SVG Version: 6.00 Build 0)  -->
<svg version="1.1" id="Layer_1" xmlns="http://www.w3.org/2000/svg" xmlns:xlink="http://www.w3.org/1999/xlink" x="0px" y="0px"
	 viewBox="0 0 15.985 14.383" style="enable-background:new 0 0 15.985 14.383;" xml:space="preserve">
<title>heart-header-icon</title>
<desc>Created with Sketch.</desc>
<g id="Page-1">
	<g id="_x30_4.2-Favorites" transform="translate(-270.000000, -168.000000)">
		<path d="M278.075,182.383l-0.256-0.151c-8.298-4.906-8.105-9.24-7.637-10.876c0.579-2.024,2.493-3.39,4.603-3.354h0.389
			c1.309,0.151,2.277,0.667,2.918,1.536c0.683-0.872,1.655-1.364,2.853-1.435c2.044-0.291,4.062,0.968,4.781,2.999
			c0.46,1.298,1.286,5.936-7.395,11.129L278.075,182.383z M274.685,169c-1.651,0-3.095,1.071-3.541,2.63
			c-0.828,2.894,1.759,6.465,6.929,9.587c7.759-4.735,7.103-8.679,6.711-9.783c-0.561-1.583-2.119-2.569-3.739-2.338
			c-1.198,0.072-2.011,0.604-2.523,1.628l-0.474,0.948l-0.43-0.968c-0.445-1.002-1.264-1.561-2.501-1.707l-0.342,0.003
			C274.744,169,274.715,169,274.685,169z"/>
	</g>
</g>
</svg>
