<?xml version="1.0" encoding="utf-8"?>
<!-- Generator: Adobe Illustrator 21.1.0, SVG Export Plug-In . SVG Version: 6.00 Build 0)  -->
<svg version="1.1" id="Layer_1" xmlns="http://www.w3.org/2000/svg" xmlns:xlink="http://www.w3.org/1999/xlink" x="0px" y="0px"
	 viewBox="0 0 146 146" style="enable-background:new 0 0 146 146;" xml:space="preserve">
<title>history-empty</title>
<desc>Created with Sketch.</desc>
<g id="Page-1">
	<g id="_x30_3.1-HIstory---Empty" transform="translate(-745.000000, -258.000000)">
		<g id="history-empty" transform="translate(745.000000, 258.000000)">
			<path id="Fill-1" d="M73,0C32.8,0,0,32.8,0,73s32.8,73,73,73s73-32.8,73-73S113.1,0,73,0z M75.3,141.2v-14.9
				c0-1.4-0.9-2.4-2.4-2.4s-2.4,0.9-2.4,2.4v14.9C35,140.1,5.9,111,4.7,75.3h14.9c1.4,0,2.4-0.9,2.4-2.4s-0.9-2.4-2.4-2.4H4.7
				C5.9,35,35,5.9,70.6,4.7v14.9c0,1.4,0.9,2.4,2.4,2.4s2.4-0.9,2.4-2.4V4.7C111,5.9,140.1,35,141.2,70.6h-14.9
				c-1.4,0-2.4,0.9-2.4,2.4s0.9,2.4,2.4,2.4h14.9C140.1,111,111,140.1,75.3,141.2z"/>
			<path id="Fill-2" d="M75.4,72.1V39.5c0-1.4-0.9-2.4-2.4-2.4s-2.4,0.9-2.4,2.4V73c0,0.7,0.2,1.2,0.7,1.6l17.5,17.5
				c0.5,0.5,1.2,0.7,1.7,0.7s1.2-0.2,1.6-0.7c0.9-0.9,0.9-2.4,0-3.3L75.4,72.1z"/>
			<path id="Fill-3" d="M27.4,45.4c0,3.1-4.7,3.1-4.7,0C22.7,42.2,27.4,42.2,27.4,45.4"/>
			<path id="Fill-4" d="M47.7,25.3c0,3.1-4.7,3.1-4.7,0S47.7,22.2,47.7,25.3"/>
			<path id="Fill-5" d="M102.5,25.8c0,3.1-4.7,3.1-4.7,0S102.5,22.6,102.5,25.8"/>
			<path id="Fill-6" d="M122.4,45.8c0,3.1-4.7,3.1-4.7,0C117.6,42.7,122.4,42.7,122.4,45.8"/>
			<path id="Fill-7" d="M122.4,100.2c0,3.1-4.7,3.1-4.7,0C117.6,97,122.4,97,122.4,100.2"/>
			<path id="Fill-8" d="M102.5,120.2c0,3.1-4.7,3.1-4.7,0S102.5,117.1,102.5,120.2"/>
			<path id="Fill-9" d="M48,120.2c0,3.1-4.7,3.1-4.7,0C43.2,117.1,48,117.1,48,120.2"/>
			<path id="Fill-10" d="M28.4,100.2c0,3.1-4.7,3.1-4.7,0C23.6,97,28.4,97,28.4,100.2"/>
		</g>
	</g>
</g>
</svg>
