<?xml version="1.0" encoding="utf-8"?>
<!-- Generator: Adobe Illustrator 21.1.0, SVG Export Plug-In . SVG Version: 6.00 Build 0)  -->
<svg version="1.1" id="Layer_1" xmlns="http://www.w3.org/2000/svg" xmlns:xlink="http://www.w3.org/1999/xlink" x="0px" y="0px"
	 viewBox="0 0 39.4 39.6" style="enable-background:new 0 0 39.4 39.6;" xml:space="preserve">
<title>play-icon</title>
<desc>Created with Sketch.</desc>
<path id="Page-1-Copy-23_1_" d="M27.55,18.675l-11.6-6.6c-0.4-0.2-0.8-0.2-1.2,0s-0.6,0.7-0.6,1.1v13.2c0,0.4,0.2,0.8,0.6,1.1
	c0.2,0.1,0.4,0.2,0.7,0.2c0.2,0,0.4-0.1,0.6-0.2l11.5-6.6c0.4-0.2,0.7-0.7,0.7-1.1S27.95,18.975,27.55,18.675z"/>
<path d="M19.7,39.6C8.8,39.6,0,30.7,0,19.8S8.8,0,19.7,0s19.7,8.9,19.7,19.8S30.6,39.6,19.7,39.6z M19.7,1C9.4,1,1,9.4,1,19.8
	s8.4,18.8,18.7,18.8s18.7-8.4,18.7-18.8S30,1,19.7,1z"/>
</svg>
