<?xml version="1.0" encoding="UTF-8"?>
<svg width="233px" height="60px" viewBox="0 0 233 60" version="1.1" xmlns="http://www.w3.org/2000/svg" xmlns:xlink="http://www.w3.org/1999/xlink">
    <!-- Generator: Sketch 44.1 (41455) - http://www.bohemiancoding.com/sketch -->
    <title>youfm-logo</title>
    <desc>Created with Sketch.</desc>
    <defs>
        <linearGradient x1="35.1902174%" y1="5.25362319%" x2="80.3300498%" y2="90.6731205%" id="linearGradient-1">
            <stop stop-color="#00FFEF" offset="0%"></stop>
            <stop stop-color="#03BBE8" offset="100%"></stop>
        </linearGradient>
    </defs>
    <g id="Page-1" stroke="none" stroke-width="1" fill="none" fill-rule="evenodd">
        <g id="00.1-Home-screen" transform="translate(-685.000000, -372.000000)">
            <g id="youfm-logo" transform="translate(685.000000, 372.000000)">
                <g id="Group-13" transform="translate(39.000000, 0.000000)">
                    <g id="Group-19" transform="translate(0.509362, 0.509362)">
                        <circle id="Oval-2" fill="url(#linearGradient-1)" cx="29.6967688" cy="29.6967688" r="29.6967688"></circle>
                        <path d="M9.03330535,39.0822626 C9.03330535,42.6557502 3.72555354,42.6557502 3.72555354,39.0822626 C3.72555354,35.5118398 9.03330535,35.5118398 9.03330535,39.0822626" id="Fill-3" fill="#0C6375"></path>
                        <path d="M9.03330535,31.8487086 C9.03330535,35.4191314 3.72555354,35.4191314 3.72555354,31.8487086 C3.72555354,28.2782858 9.03330535,28.2782858 9.03330535,31.8487086" id="Fill-4" fill="#0C6375"></path>
                        <path d="M9.03330535,24.6151546 C9.03330535,28.1855774 3.72555354,28.1855774 3.72555354,24.6151546 C3.72555354,21.0416671 9.03330535,21.0416671 9.03330535,24.6151546" id="Fill-5" fill="#0C6375"></path>
                        <path d="M16.6897677,46.3165828 C16.6897677,49.8900703 11.3820159,49.8900703 11.3820159,46.3165828 C11.3820159,42.74616 16.6897677,42.74616 16.6897677,46.3165828" id="Fill-7" fill="#0C6375"></path>
                        <path d="M24.3431936,53.5501368 C24.3431936,57.1236243 19.0354418,57.1236243 19.0354418,53.5501368 C19.0354418,49.979714 24.3431936,49.979714 24.3431936,53.5501368" id="Fill-8" fill="#0C6375"></path>
                        <path d="M24.3431936,46.3165828 C24.3431936,49.8900703 19.0354418,49.8900703 19.0354418,46.3165828 C19.0354418,42.74616 24.3431936,42.74616 24.3431936,46.3165828" id="Fill-9" fill="#0C6375"></path>
                        <path d="M24.324221,39.2607932 C24.324221,42.8342808 19.0164691,42.8342808 19.0164691,39.2607932 C19.0164691,35.6903704 24.324221,35.6903704 24.324221,39.2607932" id="Fill-10" fill="#0C6375"></path>
                        <path d="M16.6897677,39.2607932 C16.6897677,42.8342808 11.3820159,42.8342808 11.3820159,39.2607932 C11.3820159,35.6903704 16.6897677,35.6903704 16.6897677,39.2607932" id="Fill-10-Copy" fill="#0C6375"></path>
                        <path d="M24.324221,31.944198 C24.324221,35.5146208 19.0164691,35.5146208 19.0164691,31.944198 C19.0164691,28.3737752 24.324221,28.3737752 24.324221,31.944198" id="Fill-11" fill="#0C6375"></path>
                        <path d="M16.6897677,31.944198 C16.6897677,35.5146208 11.3820159,35.5146208 11.3820159,31.944198 C11.3820159,28.3737752 16.6897677,28.3737752 16.6897677,31.944198" id="Fill-11-Copy" fill="#0C6375"></path>
                        <path d="M24.3431936,24.6151546 C24.3431936,28.1855774 19.0354418,28.1855774 19.0354418,24.6151546 C19.0354418,21.0416671 24.3431936,21.0416671 24.3431936,24.6151546" id="Fill-12" fill="#0C6375"></path>
                        <path d="M24.3431936,17.3808344 C24.3431936,20.9512572 19.0354418,20.9512572 19.0354418,17.3808344 C19.0354418,13.8073469 24.3431936,13.8073469 24.3431936,17.3808344" id="Fill-13" fill="#0C6375"></path>
                        <path d="M24.3431936,10.1472804 C24.3431936,13.7177032 19.0354418,13.7177032 19.0354418,10.1472804 C19.0354418,6.57379291 24.3431936,6.57379291 24.3431936,10.1472804" id="Fill-14" fill="#0C6375"></path>
                        <path d="M31.999656,53.5501368 C31.999656,57.1236243 26.6919041,57.1236243 26.6919041,53.5501368 C26.6919041,49.979714 31.999656,49.979714 31.999656,53.5501368" id="Fill-15" fill="#0C6375"></path>
                        <path d="M32.0712041,46.1470005 C32.0712041,49.720488 26.7634523,49.720488 26.7634523,46.1470005 C26.7634523,42.5765777 32.0712041,42.5765777 32.0712041,46.1470005" id="Fill-16" fill="#0C6375"></path>
                        <path d="M39.6561183,46.1470005 C39.6561183,49.720488 34.3483665,49.720488 34.3483665,46.1470005 C34.3483665,42.5765777 39.6561183,42.5765777 39.6561183,46.1470005" id="Fill-16-Copy" fill="#0C6375"></path>
                        <path d="M32.0712041,39.2607932 C32.0712041,42.8342808 26.7634523,42.8342808 26.7634523,39.2607932 C26.7634523,35.6903704 32.0712041,35.6903704 32.0712041,39.2607932" id="Fill-17" fill="#0C6375"></path>
                        <path d="M39.6561183,39.2607932 C39.6561183,42.8342808 34.3483665,42.8342808 34.3483665,39.2607932 C34.3483665,35.6903704 39.6561183,35.6903704 39.6561183,39.2607932" id="Fill-17-Copy" fill="#0C6375"></path>
                        <path d="M31.999656,31.8487086 C31.999656,35.4191314 26.6919041,35.4191314 26.6919041,31.8487086 C26.6919041,28.2782858 31.999656,28.2782858 31.999656,31.8487086" id="Fill-18" fill="#0C6375"></path>
                        <path d="M31.999656,24.6151546 C31.999656,28.1855774 26.6919041,28.1855774 26.6919041,24.6151546 C26.6919041,21.0416671 31.999656,21.0416671 31.999656,24.6151546" id="Fill-19" fill="#0C6375"></path>
                        <path d="M39.6561183,53.5501368 C39.6561183,57.1205596 34.3483665,57.1205596 34.3483665,53.5501368 C34.3483665,49.979714 39.6561183,49.979714 39.6561183,53.5501368" id="Fill-20" fill="#0C6375"></path>
                        <path d="M47.3095442,46.3165828 C47.3095442,49.8900703 42.0017924,49.8900703 42.0017924,46.3165828 C42.0017924,42.74616 47.3095442,42.74616 47.3095442,46.3165828" id="Fill-22" fill="#0C6375"></path>
                        <path d="M47.3095442,39.0822626 C47.3095442,42.6557502 42.0017924,42.6557502 42.0017924,39.0822626 C42.0017924,35.5118398 47.3095442,35.5118398 47.3095442,39.0822626" id="Fill-23" fill="#0C6375"></path>
                        <path d="M47.3095442,31.8487086 C47.3095442,35.4191314 42.0017924,35.4191314 42.0017924,31.8487086 C42.0017924,28.2782858 47.3095442,28.2782858 47.3095442,31.8487086" id="Fill-24" fill="#0C6375"></path>
                        <path d="M54.9660066,39.0822626 C54.9660066,42.6557502 49.6582547,42.6557502 49.6582547,39.0822626 C49.6582547,35.5118398 54.9660066,35.5118398 54.9660066,39.0822626" id="Fill-27" fill="#0C6375"></path>
                        <path d="M54.9660066,31.8487086 C54.9660066,35.4191314 49.6582547,35.4191314 49.6582547,31.8487086 C49.6582547,28.2782858 54.9660066,28.2782858 54.9660066,31.8487086" id="Fill-28" fill="#0C6375"></path>
                        <path d="M54.9660066,24.6151546 C54.9660066,28.1855774 49.6582547,28.1855774 49.6582547,24.6151546 C49.6582547,21.0416671 54.9660066,21.0416671 54.9660066,24.6151546" id="Fill-29" fill="#0C6375"></path>
                    </g>
                </g>
                <path d="M0.752,8.054 C0.66399956,7.87799912 0.62,7.70200088 0.62,7.526 C0.62,6.99799736 0.9499967,6.734 1.61,6.734 L7.88,6.734 C8.62800374,6.734 9.10099901,6.79999934 9.299,6.932 C9.49700099,7.06400066 9.68399912,7.28399846 9.86,7.592 L10.85,9.44 C11.1580015,10.0560031 12.5439877,12.6739769 15.008,17.294 C15.2720013,17.9100031 15.404,18.415998 15.404,18.812 C15.404,19.2960024 15.2720013,19.8019974 15.008,20.33 L12.236,25.412 C12.0159989,25.8960024 11.6860022,26.138 11.246,26.138 C10.849998,26.138 10.5420011,25.9180022 10.322,25.478 L0.752,8.054 Z M16.097,52.637 C15.8549988,52.3949988 15.734,52.1200015 15.734,51.812 L15.734,36.632 C15.734,35.1799927 16.1629957,33.3870107 17.021,31.253 C17.8790043,29.1189893 19.1879912,26.5120154 20.948,23.432 C21.5640031,22.3319945 23.4999837,18.7020308 26.756,12.542 L29.198,7.922 C29.3740009,7.56999824 29.5939987,7.2840011 29.858,7.064 C30.1220013,6.8439989 30.5399971,6.734 31.112,6.734 L37.448,6.734 C38.240004,6.734 38.636,6.9539978 38.636,7.394 C38.636,7.57000088 38.5700007,7.78999868 38.438,8.054 L24.644,33.266 C24.2039978,34.058004 23.9620002,35.0039945 23.918,36.104 L23.918,51.812 C23.918,52.1200015 23.8080011,52.3949988 23.588,52.637 C23.3679989,52.8790012 23.0820018,53 22.73,53 L16.922,53 C16.6139985,53 16.3390012,52.8790012 16.097,52.637 Z M117.614,51.35 C115.105988,49.8979927 113.104008,47.9290124 111.608,45.443 C110.111993,42.9569876 109.364,40.2400147 109.364,37.292 L109.364,8.054 C109.364,7.70199824 109.484999,7.40500121 109.727,7.163 C109.969001,6.92099879 110.243999,6.8 110.552,6.8 L116.888,6.8 C117.196002,6.8 117.470999,6.92099879 117.713,7.163 C117.955001,7.40500121 118.076,7.70199824 118.076,8.054 L118.076,37.292 C118.076,39.4480108 118.823993,41.2849924 120.32,42.803 C121.816008,44.3210076 123.641989,45.08 125.798,45.08 C127.426008,45.08 128.954993,44.7280035 130.385,44.024 C131.815007,43.3199965 132.947996,42.3740059 133.784,41.186 C134.620004,39.9979941 135.038,38.700007 135.038,37.292 L135.038,8.054 C135.038,7.70199824 135.158999,7.40500121 135.401,7.163 C135.643001,6.92099879 135.917999,6.8 136.226,6.8 L142.562,6.8 C142.870002,6.8 143.144999,6.92099879 143.387,7.163 C143.629001,7.40500121 143.75,7.70199824 143.75,8.054 L143.75,37.292 C143.75,40.284015 142.980008,43.0119877 141.44,45.476 C139.899992,47.9400123 137.766014,49.8979927 135.038,51.35 C132.309987,52.8020073 129.230017,53.528 125.798,53.528 C122.849985,53.528 120.122013,52.8020073 117.614,51.35 Z M150.073,14.423 C149.830999,14.1809988 149.71,13.9060015 149.71,13.598 L149.71,7.988 C149.71,7.63599824 149.830999,7.33900121 150.073,7.097 C150.315001,6.85499879 150.589999,6.734 150.898,6.734 L187.924,6.734 C188.232002,6.734 188.506999,6.85499879 188.749,7.097 C188.991001,7.33900121 189.112,7.63599824 189.112,7.988 L189.112,13.598 C189.112,13.9060015 189.002001,14.1809988 188.782,14.423 C188.561999,14.6650012 188.276002,14.786 187.924,14.786 L150.898,14.786 C150.589999,14.786 150.315001,14.6650012 150.073,14.423 Z M165.319,52.637 C165.076999,52.3949988 164.956,52.1200015 164.956,51.812 L164.956,27.26 C164.956,26.9079982 165.076999,26.6220011 165.319,26.402 C165.561001,26.1819989 165.835999,26.072 166.144,26.072 L181.786,26.072 C182.138002,26.072 182.434999,26.1929988 182.677,26.435 C182.919001,26.6770012 183.04,26.9519985 183.04,27.26 L183.04,33.464 C183.04,33.8160018 182.919001,34.1129988 182.677,34.355 C182.434999,34.5970012 182.138002,34.718 181.786,34.718 L175.12,34.718 C174.811999,34.718 174.537001,34.8279989 174.295,35.048 C174.052999,35.2680011 173.932,35.5539982 173.932,35.906 L173.932,51.812 C173.932,52.1200015 173.811001,52.3949988 173.569,52.637 C173.326999,52.8790012 173.030002,53 172.678,53 L166.144,53 C165.835999,53 165.561001,52.8790012 165.319,52.637 Z M232.56,7.295 C232.780001,7.53700121 232.89,7.83399824 232.89,8.186 L232.89,51.746 C232.89,52.0980018 232.780001,52.3839989 232.56,52.604 C232.339999,52.8240011 232.076002,52.934 231.768,52.934 L225.234,52.934 C224.925999,52.934 224.662001,52.8240011 224.442,52.604 C224.221999,52.3839989 224.112,52.0980018 224.112,51.746 L224.112,25.61 C224.112,25.213998 224.024001,25.016 223.848,25.016 C223.716,25.016 223.518002,25.1699985 223.254,25.478 C222.549997,26.5340053 221.395008,28.1839888 219.789,30.428 C218.182992,32.6720112 217.006004,34.2999949 216.258,35.312 C215.817998,35.8840029 215.455002,36.2579991 215.169,36.434 C214.882999,36.6100009 214.410004,36.698 213.75,36.698 L212.628,36.698 C211.835996,36.698 211.297002,36.6320007 211.011,36.5 C210.724999,36.3679993 210.406002,36.0820022 210.054,35.642 L202.86,25.544 C202.684,25.147998 202.486001,24.95 202.266,24.95 C202.09,24.95 202.002,25.147998 202.002,25.544 L202.002,33.728 C202.002,34.0800018 201.892001,34.3659989 201.672,34.586 C201.451999,34.8060011 201.188002,34.916 200.88,34.916 L194.412,34.916 C194.103999,34.916 193.829002,34.7950012 193.587,34.553 C193.344999,34.3109988 193.224,34.0360015 193.224,33.728 L193.224,8.186 C193.224,7.83399824 193.344999,7.53700121 193.587,7.295 C193.829002,7.05299879 194.103999,6.932 194.412,6.932 L201.012,6.932 C201.144001,6.932 201.308999,7.00899923 201.507,7.163 C201.705001,7.31700077 201.848,7.48199912 201.936,7.658 L211.968,24.224 C212.012001,24.3120004 212.132999,24.4439991 212.331,24.62 C212.529001,24.7960009 212.781999,24.884 213.09,24.884 L213.156,24.884 C213.464002,24.884 213.706,24.7740011 213.882,24.554 C214.058001,24.3339989 214.168,24.1800004 214.212,24.092 L224.178,7.724 C224.310001,7.5039989 224.442,7.31700077 224.574,7.163 C224.706001,7.00899923 224.881999,6.932 225.102,6.932 L231.768,6.932 C232.076002,6.932 232.339999,7.05299879 232.56,7.295 Z" id="YouFM" fill="#FFFFFF"></path>
            </g>
        </g>
    </g>
</svg>