<?xml version="1.0" encoding="UTF-8"?>
<svg width="50px" height="50px" viewBox="0 0 50 50" version="1.1" xmlns="http://www.w3.org/2000/svg" xmlns:xlink="http://www.w3.org/1999/xlink">
    <!-- Generator: Sketch 44.1 (41455) - http://www.bohemiancoding.com/sketch -->
    <title>youfm-icon</title>
    <desc>Created with Sketch.</desc>
    <defs>
        <linearGradient x1="35.1902174%" y1="5.25362319%" x2="80.3300498%" y2="90.6731205%" id="linearGradient-1">
            <stop stop-color="#00FFEF" offset="0%"></stop>
            <stop stop-color="#03BBE8" offset="100%"></stop>
        </linearGradient>
    </defs>
    <g id="Page-1" stroke="none" stroke-width="1" fill="none" fill-rule="evenodd">
        <g id="00.1-Home-screen" transform="translate(-71.000000, -34.000000)">
            <g id="youfm-icon" transform="translate(71.000000, 34.000000)">
                <g id="Group-19" transform="translate(0.915493, 0.915493)">
                    <circle id="Oval-2" fill="url(#linearGradient-1)" cx="24.5070423" cy="24.5070423" r="24.5070423"></circle>
                    <path d="M7.45466947,32.2523526 C7.45466947,35.2013472 3.07448593,35.2013472 3.07448593,32.2523526 C3.07448593,29.3058872 7.45466947,29.3058872 7.45466947,32.2523526" id="Fill-3" fill="#0C6375"></path>
                    <path d="M7.45466947,26.2829149 C7.45466947,29.2293803 3.07448593,29.2293803 3.07448593,26.2829149 C3.07448593,23.3364495 7.45466947,23.3364495 7.45466947,26.2829149" id="Fill-4" fill="#0C6375"></path>
                    <path d="M7.45466947,20.3134771 C7.45466947,23.2599425 3.07448593,23.2599425 3.07448593,20.3134771 C3.07448593,17.3644825 7.45466947,17.3644825 7.45466947,20.3134771" id="Fill-5" fill="#0C6375"></path>
                    <path d="M13.7731093,38.2224227 C13.7731093,41.1714173 9.39292574,41.1714173 9.39292574,38.2224227 C9.39292574,35.2759573 13.7731093,35.2759573 13.7731093,38.2224227" id="Fill-7" fill="#0C6375"></path>
                    <path d="M20.0890433,44.1918605 C20.0890433,47.140855 15.7088597,47.140855 15.7088597,44.1918605 C15.7088597,41.245395 20.0890433,41.245395 20.0890433,44.1918605" id="Fill-8" fill="#0C6375"></path>
                    <path d="M20.0890433,38.2224227 C20.0890433,41.1714173 15.7088597,41.1714173 15.7088597,38.2224227 C15.7088597,35.2759573 20.0890433,35.2759573 20.0890433,38.2224227" id="Fill-9" fill="#0C6375"></path>
                    <path d="M20.0733862,32.3996837 C20.0733862,35.3486783 15.6932027,35.3486783 15.6932027,32.3996837 C15.6932027,29.4532183 20.0733862,29.4532183 20.0733862,32.3996837" id="Fill-10" fill="#0C6375"></path>
                    <path d="M13.7731093,32.3996837 C13.7731093,35.3486783 9.39292574,35.3486783 9.39292574,32.3996837 C9.39292574,29.4532183 13.7731093,29.4532183 13.7731093,32.3996837" id="Fill-10-Copy" fill="#0C6375"></path>
                    <path d="M20.0733862,26.3617168 C20.0733862,29.3081822 15.6932027,29.3081822 15.6932027,26.3617168 C15.6932027,23.4152514 20.0733862,23.4152514 20.0733862,26.3617168" id="Fill-11" fill="#0C6375"></path>
                    <path d="M13.7731093,26.3617168 C13.7731093,29.3081822 9.39292574,29.3081822 9.39292574,26.3617168 C9.39292574,23.4152514 13.7731093,23.4152514 13.7731093,26.3617168" id="Fill-11-Copy" fill="#0C6375"></path>
                    <path d="M20.0890433,20.3134771 C20.0890433,23.2599425 15.7088597,23.2599425 15.7088597,20.3134771 C15.7088597,17.3644825 20.0890433,17.3644825 20.0890433,20.3134771" id="Fill-12" fill="#0C6375"></path>
                    <path d="M20.0890433,14.3434071 C20.0890433,17.2898725 15.7088597,17.2898725 15.7088597,14.3434071 C15.7088597,11.3944125 20.0890433,11.3944125 20.0890433,14.3434071" id="Fill-13" fill="#0C6375"></path>
                    <path d="M20.0890433,8.3739693 C20.0890433,11.3204347 15.7088597,11.3204347 15.7088597,8.3739693 C15.7088597,5.42497473 20.0890433,5.42497473 20.0890433,8.3739693" id="Fill-14" fill="#0C6375"></path>
                    <path d="M26.4074831,44.1918605 C26.4074831,47.140855 22.0272995,47.140855 22.0272995,44.1918605 C22.0272995,41.245395 26.4074831,41.245395 26.4074831,44.1918605" id="Fill-15" fill="#0C6375"></path>
                    <path d="M26.4665277,38.0824761 C26.4665277,41.0314707 22.0863442,41.0314707 22.0863442,38.0824761 C22.0863442,35.1360107 26.4665277,35.1360107 26.4665277,38.0824761" id="Fill-16" fill="#0C6375"></path>
                    <path d="M32.7259229,38.0824761 C32.7259229,41.0314707 28.3457393,41.0314707 28.3457393,38.0824761 C28.3457393,35.1360107 32.7259229,35.1360107 32.7259229,38.0824761" id="Fill-16-Copy" fill="#0C6375"></path>
                    <path d="M26.4665277,32.3996837 C26.4665277,35.3486783 22.0863442,35.3486783 22.0863442,32.3996837 C22.0863442,29.4532183 26.4665277,29.4532183 26.4665277,32.3996837" id="Fill-17" fill="#0C6375"></path>
                    <path d="M32.7259229,32.3996837 C32.7259229,35.3486783 28.3457393,35.3486783 28.3457393,32.3996837 C28.3457393,29.4532183 32.7259229,29.4532183 32.7259229,32.3996837" id="Fill-17-Copy" fill="#0C6375"></path>
                    <path d="M26.4074831,26.2829149 C26.4074831,29.2293803 22.0272995,29.2293803 22.0272995,26.2829149 C22.0272995,23.3364495 26.4074831,23.3364495 26.4074831,26.2829149" id="Fill-18" fill="#0C6375"></path>
                    <path d="M26.4074831,20.3134771 C26.4074831,23.2599425 22.0272995,23.2599425 22.0272995,20.3134771 C22.0272995,17.3644825 26.4074831,17.3644825 26.4074831,20.3134771" id="Fill-19" fill="#0C6375"></path>
                    <path d="M32.7259229,44.1918605 C32.7259229,47.1383259 28.3457393,47.1383259 28.3457393,44.1918605 C28.3457393,41.245395 32.7259229,41.245395 32.7259229,44.1918605" id="Fill-20" fill="#0C6375"></path>
                    <path d="M39.0418569,38.2224227 C39.0418569,41.1714173 34.6616733,41.1714173 34.6616733,38.2224227 C34.6616733,35.2759573 39.0418569,35.2759573 39.0418569,38.2224227" id="Fill-22" fill="#0C6375"></path>
                    <path d="M39.0418569,32.2523526 C39.0418569,35.2013472 34.6616733,35.2013472 34.6616733,32.2523526 C34.6616733,29.3058872 39.0418569,29.3058872 39.0418569,32.2523526" id="Fill-23" fill="#0C6375"></path>
                    <path d="M39.0418569,26.2829149 C39.0418569,29.2293803 34.6616733,29.2293803 34.6616733,26.2829149 C34.6616733,23.3364495 39.0418569,23.3364495 39.0418569,26.2829149" id="Fill-24" fill="#0C6375"></path>
                    <path d="M45.3602967,32.2523526 C45.3602967,35.2013472 40.9801131,35.2013472 40.9801131,32.2523526 C40.9801131,29.3058872 45.3602967,29.3058872 45.3602967,32.2523526" id="Fill-27" fill="#0C6375"></path>
                    <path d="M45.3602967,26.2829149 C45.3602967,29.2293803 40.9801131,29.2293803 40.9801131,26.2829149 C40.9801131,23.3364495 45.3602967,23.3364495 45.3602967,26.2829149" id="Fill-28" fill="#0C6375"></path>
                    <path d="M45.3602967,20.3134771 C45.3602967,23.2599425 40.9801131,23.2599425 40.9801131,20.3134771 C40.9801131,17.3644825 45.3602967,17.3644825 45.3602967,20.3134771" id="Fill-29" fill="#0C6375"></path>
                </g>
            </g>
        </g>
    </g>
</svg>